<svg width="66" height="45" viewBox="0 0 66 45" fill="none" xmlns="http://www.w3.org/2000/svg">
<path d="M62.0266 26.5011L56.0051 20.2492L50.7363 14.6439C46.4546 10.2942 40.8874 13.4051 39.0063 15.8028L23.0752 35.9539L28.1558 41.0082C34.1773 45.8588 38.317 42.625 43.8305 35.5295L49.9836 27.9294C52.1162 25.4996 57.5105 21.8122 62.0266 26.5011Z" fill="#007E45"/>
<path d="M43.8305 35.5295C43.8305 35.5295 46.6981 37.0336 52.2417 38.1786C62.0266 40.1997 67.0445 31.7111 62.0266 26.5011M43.8305 35.5295C38.317 42.625 34.1773 45.8588 28.1558 41.0082L23.0752 35.9539M43.8305 35.5295L49.9836 27.9294C52.1162 25.4996 57.5105 21.8122 62.0266 26.5011M62.0266 26.5011L56.0051 20.2492L50.7363 14.6439M50.7363 14.6439L44.7148 8.52684C39.4461 2.92149 33.0482 -3.54601 22.1343 10.1975L10.844 24.478L2 35.147L8.20965 41.0082C13.8548 45.7688 19.2229 40.7273 23.0752 35.9539M50.7363 14.6439C46.4546 10.2942 40.8874 13.4051 39.0063 15.8028L23.0752 35.9539" stroke="white" stroke-width="2.5"/>
<path d="M10.844 24.478L2 35.147L8.20965 41.0082C13.8548 45.7688 19.2229 40.7273 23.0752 35.9539L39.0063 15.8028C40.8874 13.4051 46.4546 10.2942 50.7363 14.6439L44.7148 8.52684C39.4461 2.92149 33.0482 -3.54601 22.1343 10.1974L10.844 24.478Z" fill="#007E45"/>
<path d="M43.8305 35.5295C43.8305 35.5295 46.6981 37.0336 52.2417 38.1786C62.0266 40.1997 67.0445 31.7111 62.0266 26.5011M43.8305 35.5295C38.317 42.625 34.1773 45.8588 28.1558 41.0082L23.0752 35.9539M43.8305 35.5295L49.9836 27.9294C52.1162 25.4996 57.5105 21.8122 62.0266 26.5011M62.0266 26.5011L56.0051 20.2492L50.7363 14.6439M50.7363 14.6439L44.7148 8.52684C39.4461 2.92149 33.0482 -3.54601 22.1343 10.1975L10.844 24.478L2 35.147L8.20965 41.0082C13.8548 45.7688 19.2229 40.7273 23.0752 35.9539M50.7363 14.6439C46.4546 10.2942 40.8874 13.4051 39.0063 15.8028L23.0752 35.9539" stroke="white" stroke-width="2.5"/>
<path opacity="0.55" d="M43.8301 35.5295C43.8301 35.5295 46.6977 37.0336 52.2413 38.1786C62.0262 40.1997 67.0441 31.7111 62.0262 26.5011C57.5101 21.8122 52.1158 25.4995 49.9832 27.9293L43.8301 35.5295Z" fill="#007E45" stroke="white" stroke-width="2.5"/>
</svg>
