<svg width="60" height="60" viewBox="0 0 60 60" fill="none" xmlns="http://www.w3.org/2000/svg">
<path d="M30 0C13.4325 0 0 13.4325 0 30C0 46.5675 13.4325 60 30 60C46.5675 60 60 46.5675 60 30C60 13.4325 46.5675 0 30 0ZM45.04 27.5C44.92 24.925 44.62 22.4125 44.15 20H52.9C53.925 22.3375 54.6125 24.855 54.875 27.5H45.04ZM54.8725 32.5C54.61 35.145 53.9225 37.6625 52.8975 40H44.1475C44.6175 37.5875 44.92 35.075 45.0375 32.5H54.8725ZM49.9525 15H42.8775C41.94 12.0075 40.69 9.27 39.225 6.785C43.515 8.495 47.2125 11.3625 49.9525 15ZM37.5825 15H32.5V5.815C34.6025 8.34 36.315 11.455 37.5825 15ZM32.5 45H37.5825C36.315 48.545 34.6025 51.66 32.5 54.185V45ZM27.5 5.815V15H22.4175C23.685 11.455 25.3975 8.34 27.5 5.815ZM27.5 20V27.5H20.015C20.145 24.9 20.4675 22.39 20.9875 20H27.5ZM27.5 32.5V40H20.9875C20.4675 37.61 20.1475 35.1 20.015 32.5H27.5ZM27.5 45V54.185C25.3975 51.66 23.685 48.545 22.4175 45H27.5ZM32.5 40V32.5H39.985C39.855 35.1 39.5325 37.61 39.0125 40H32.5ZM32.5 27.5V20H39.0125C39.5325 22.39 39.8525 24.9 39.985 27.5H32.5ZM20.775 6.785C19.31 9.27 18.06 12.0075 17.1225 15H10.0475C12.7875 11.3625 16.485 8.495 20.775 6.785ZM14.96 27.5H5.1275C5.39 24.855 6.0775 22.3375 7.1025 20H15.8525C15.38 22.4125 15.08 24.925 14.96 27.5ZM15.8525 40H7.1025C6.0775 37.6625 5.39 35.145 5.1275 32.5H14.9625C15.08 35.075 15.38 37.5875 15.8525 40ZM10.0475 45H17.1225C18.06 47.9925 19.31 50.73 20.775 53.215C16.485 51.505 12.7875 48.6375 10.0475 45ZM39.225 53.215C40.69 50.73 41.94 47.9925 42.8775 45H49.9525C47.2125 48.6375 43.515 51.505 39.225 53.215Z" fill="white"/>
</svg>
