<svg width="77" height="70" viewBox="0 0 77 70" fill="none" xmlns="http://www.w3.org/2000/svg">
<g filter="url(#filter0_d_212_45)">
<path fill-rule="evenodd" clip-rule="evenodd" d="M18.7014 12.8C17.3795 16.528 13.8119 19.2 9.625 19.2C4.312 19.2 0 14.8992 0 9.6C0 4.3008 4.312 0 9.625 0C13.8119 0 17.3795 2.672 18.7014 6.4H62.5625C70.532 6.4 77 12.8512 77 20.8C77 28.7488 70.532 35.2 62.5625 35.2H47.5764C46.2545 38.928 42.6869 41.6 38.5 41.6C34.3131 41.6 30.7455 38.928 29.4236 35.2H14.4375C10.01 35.2 6.41667 38.784 6.41667 43.2C6.41667 47.616 10.01 51.2 14.4375 51.2H58.2986C59.6205 47.472 63.1881 44.8 67.375 44.8C72.688 44.8 77 49.1008 77 54.4C77 59.6992 72.688 64 67.375 64C63.1881 64 59.6205 61.328 58.2986 57.6H14.4375C6.468 57.6 0 51.1488 0 43.2C0 35.2512 6.468 28.8 14.4375 28.8H29.4236C30.7455 25.072 34.3131 22.4 38.5 22.4C42.6869 22.4 46.2545 25.072 47.5764 28.8H62.5625C66.99 28.8 70.5833 25.216 70.5833 20.8C70.5833 16.384 66.99 12.8 62.5625 12.8H18.7014ZM38.5 28.8C40.271 28.8 41.7083 30.2336 41.7083 32C41.7083 33.7664 40.271 35.2 38.5 35.2C36.729 35.2 35.2917 33.7664 35.2917 32C35.2917 30.2336 36.729 28.8 38.5 28.8Z" fill="#2E6A4E"/>
</g>
<defs>
<filter id="filter0_d_212_45" x="0" y="0" width="77" height="70" filterUnits="userSpaceOnUse" color-interpolation-filters="sRGB">
<feFlood flood-opacity="0" result="BackgroundImageFix"/>
<feColorMatrix in="SourceAlpha" type="matrix" values="0 0 0 0 0 0 0 0 0 0 0 0 0 0 0 0 0 0 127 0" result="hardAlpha"/>
<feOffset dy="6"/>
<feComposite in2="hardAlpha" operator="out"/>
<feColorMatrix type="matrix" values="0 0 0 0 0 0 0 0 0 0 0 0 0 0 0 0 0 0 0.17 0"/>
<feBlend mode="normal" in2="BackgroundImageFix" result="effect1_dropShadow_212_45"/>
<feBlend mode="normal" in="SourceGraphic" in2="effect1_dropShadow_212_45" result="shape"/>
</filter>
</defs>
</svg>
