<svg width="26" height="32" viewBox="0 0 26 32" fill="none" xmlns="http://www.w3.org/2000/svg">
<path fill-rule="evenodd" clip-rule="evenodd" d="M22.9543 0C24.6331 0 26 1.472 26 3.296V32L22.8057 28.96L21.008 27.168L19.1063 25.264L19.8937 28.224H3.04571C1.36686 28.224 0 26.752 0 24.928V3.296C0 1.472 1.36686 0 3.04571 0L22.9543 0ZM17.2194 20.896C20.5029 20.784 21.7657 18.464 21.7657 18.464C21.7657 13.312 19.6263 9.136 19.6263 9.136C17.4869 7.408 15.4514 7.456 15.4514 7.456L15.2434 7.712C17.7691 8.544 18.9429 9.744 18.9429 9.744C17.3977 8.832 15.8823 8.384 14.4709 8.208C13.4011 8.08 12.376 8.112 11.4697 8.24L11.2171 8.272C10.6971 8.32 9.43429 8.528 7.84457 9.28C7.29486 9.552 6.968 9.744 6.968 9.744C6.968 9.744 8.20114 8.48 10.8754 7.648L10.7269 7.456C10.7269 7.456 8.69143 7.408 6.552 9.136C6.552 9.136 4.41257 13.312 4.41257 18.464C4.41257 18.464 5.66057 20.784 8.944 20.896C8.944 20.896 9.49371 20.176 9.93943 19.568C8.05257 18.96 7.33943 17.68 7.33943 17.68L7.75543 17.952L7.81486 18L7.87305 18.036L7.89038 18.044L7.94857 18.08C8.32 18.304 8.69143 18.48 9.03314 18.624C9.64229 18.88 10.3703 19.136 11.2171 19.312C12.3314 19.536 13.6389 19.616 15.0651 19.328C15.7634 19.2 16.4766 18.976 17.2194 18.64C17.7394 18.432 18.3189 18.128 18.928 17.696C18.928 17.696 18.1851 19.008 16.2389 19.6C16.6846 20.208 17.2194 20.896 17.2194 20.896ZM10.3109 13.424C9.464 13.424 8.79543 14.224 8.79543 15.2C8.79543 16.176 9.47886 16.976 10.3109 16.976C11.1577 16.976 11.8263 16.176 11.8263 15.2C11.8411 14.224 11.1577 13.424 10.3109 13.424ZM15.7337 13.424C14.8869 13.424 14.2183 14.224 14.2183 15.2C14.2183 16.176 14.9017 16.976 15.7337 16.976C16.5806 16.976 17.2491 16.176 17.2491 15.2C17.2491 14.224 16.5806 13.424 15.7337 13.424Z" fill="#444444"/>
</svg>
