<svg width="89" height="69" viewBox="0 0 89 69" fill="none" xmlns="http://www.w3.org/2000/svg">
<path d="M45.5505 15.243L46.1197 16.5508C46.9956 16.3954 48.0416 16.3424 49.2502 16.4561L49.7418 18.6434C48.7919 18.5221 47.7829 18.4084 46.8921 18.5979L46.5521 18.6851C44.8371 19.1514 45.3841 20.8269 46.9143 21.2325C49.435 21.8315 52.4363 22.021 53.6227 24.7277C54.5763 26.9188 53.4712 28.4162 51.6231 29.1365L52.1923 30.4481L50.9911 30.7059L50.4478 29.4587C49.1985 29.6899 47.7681 29.6596 46.456 29.3033L46.0864 27.0894C47.173 27.2638 48.5184 27.4192 49.5533 27.2031L50.2408 26.9757C51.4716 26.3502 51.0946 24.7694 49.265 24.3941C47.9086 24.0795 44.3049 24.3145 42.9632 21.2439C42.2055 19.5077 42.7673 17.6957 44.9406 16.8693L44.3455 15.5008L45.5505 15.243ZM59.6695 21.3614C57.0601 15.1141 49.7603 10.9328 43.3735 12.0246C36.9867 13.1163 33.9226 19.0642 36.5357 25.3153C39.293 31.9076 47.21 36.1306 53.7262 34.4664C59.4995 32.9956 62.1532 27.3131 59.6695 21.3614ZM74.6386 0L88.558 31.2101C68.4772 47.2188 41.7879 31.066 22.2097 48.121L8.2903 16.911C26.5637 -1.20549 51.8042 15.2051 74.6386 0ZM88.7059 45.5433C63.3619 60.4754 42.8782 40.1451 16.6324 68.2353L0 30.4633L5.1819 24.921L19.2529 56.768L19.2455 56.7983C46.7628 35.5999 60.6231 52.344 86.1778 39.5082C87.2644 41.9609 88.266 44.5501 88.7059 45.5433Z" fill="white"/>
</svg>
