<svg width="541" height="128" viewBox="0 0 541 128" fill="none" xmlns="http://www.w3.org/2000/svg">
<path d="M467.804 81.5322C467.094 84.1358 465.911 86.5026 464.49 88.6328C463.07 90.9997 461.177 92.8931 458.81 94.5499C449.106 101.887 431.591 102.597 420.23 91.7097C411.71 83.6624 408.396 68.7512 413.603 56.2069C416.207 50.053 421.177 43.8992 428.988 40.3489C437.982 36.3253 452.893 37.5087 460.94 46.2661C466.384 52.1832 469.224 61.1773 468.514 71.5914C468.514 72.5382 468.277 73.2482 468.277 73.2482H426.621C426.621 76.3251 428.041 78.9287 429.698 81.0589C431.828 83.8991 436.088 86.2659 440.348 86.5026C443.662 86.7393 447.449 86.0293 450.053 84.1358C452.183 82.479 453.603 80.3488 454.55 77.7453L467.804 81.5322ZM452.893 62.5974C452.893 58.337 450.053 54.3134 446.739 52.6566C442.479 50.5264 437.035 50.7631 433.248 52.8933C429.698 54.7868 427.094 58.337 426.857 62.8341C432.775 62.8341 438.692 62.8341 444.609 62.8341C447.449 62.5974 450.053 62.5974 452.893 62.5974Z" fill="#0B0E14"/>
<path d="M262.834 40.1124V26.858L277.035 22.5977V40.1124H288.87V54.0768H277.035V78.4555C277.035 81.059 277.509 82.7158 278.692 83.6625C279.876 84.6093 281.532 85.0827 283.899 85.0827C284.846 85.0827 285.793 85.0827 286.74 85.0827C287.686 85.0827 288.396 84.846 288.87 84.6093V97.627C288.16 97.8637 286.976 98.337 285.556 98.5737C284.136 98.8104 282.243 99.0471 279.876 99.0471C274.195 99.0471 269.698 97.3903 266.385 94.3134C263.071 91.2365 261.414 86.7394 261.414 81.059V54.0768H251V40.1124H262.834V40.1124Z" fill="#0B0E14"/>
<path d="M336.917 55.7334C333.13 55.2601 327.686 54.0766 321.532 58.8104C320.112 59.9938 319.165 61.6506 318.219 63.7807C317.509 65.9109 317.035 68.5144 317.035 71.5914V98.1001H301.177V40.1122H316.562C316.562 42.9524 316.562 45.556 316.562 48.3962C317.272 47.4495 317.982 46.266 318.692 45.3193C319.875 44.1358 321.059 43.1891 322.242 42.2424C326.029 39.8755 330.526 39.4021 334.787 39.6388C335.26 39.6388 335.97 39.6388 336.68 39.8755V55.7334H336.917Z" fill="#0B0E14"/>
<path d="M384.728 40.1123H400.585V98.3369H385.201V91.2364C383.307 94.3133 380.941 96.4435 377.864 97.8636C370.763 101.177 361.532 100.704 355.378 95.9701C349.461 91.4731 347.568 84.1358 347.568 77.0352V40.1123H363.426V73.9583C363.426 80.1121 366.976 85.0825 373.367 85.3192C376.68 85.3192 379.757 84.3725 381.887 82.0056C384.254 79.6388 384.964 76.5619 384.964 73.2483C384.728 73.7216 384.728 40.1123 384.728 40.1123Z" fill="#0B0E14"/>
<path d="M499.52 53.6035V98.3371H483.662V53.6035H473.958V40.1124H483.662C483.662 34.1952 483.189 28.2781 486.029 22.8343C488.159 18.574 491.709 15.2604 496.206 13.3669C498.81 12.4201 501.65 11.9468 504.964 11.9468C506.621 11.9468 508.277 11.9468 509.698 12.1835C511.118 12.4201 512.301 12.6568 512.774 13.1302V26.1479C512.301 25.9112 511.828 25.9112 511.118 25.6746C508.514 25.2012 505.437 25.4379 503.07 26.858C500.704 28.2781 499.757 30.8816 499.757 33.4852V39.8757H538.81V98.1004H523.189V53.6035H499.52Z" fill="#0B0E14"/>
<path d="M540.467 20.7041C540.467 18.1006 539.283 15.497 537.627 13.8402C535.97 12.1834 533.366 11 530.763 11C528.159 11 525.556 12.1834 523.899 13.8402C522.242 15.497 521.059 18.1006 521.059 20.7041C521.059 23.3076 522.242 25.9112 523.899 27.568C525.556 29.2248 528.159 30.4082 530.763 30.4082C533.366 30.4082 535.97 29.2248 537.627 27.568C539.283 25.9112 540.467 23.5443 540.467 20.7041Z" fill="#0B0E14"/>
<path d="M154 0C146.8 0 140.2 3.85 136.65 10.05L91.5901 88H58V128H103.197C110.345 128 116.951 124.184 120.522 117.992L165.5 40H199V0H154Z" fill="#0B0E14"/>
<path d="M34.75 128L0 108.05L56.65 10.05C60.2 3.85 66.8 0 74 0H119V40H85.5L34.75 128Z" fill="#0B0E14"/>
<path d="M4 0V40C26.1 40 44 22.1 44 0H4Z" fill="#0B0E14"/>
<path d="M179 104C190.046 104 199 95.0457 199 84C199 72.9543 190.046 64 179 64C167.954 64 159 72.9543 159 84C159 95.0457 167.954 104 179 104Z" fill="#0B0E14"/>
</svg>
