<svg width="32" height="25" viewBox="0 0 32 25" fill="none" xmlns="http://www.w3.org/2000/svg">
<path d="M32 2.95965C30.8227 3.46211 29.5573 3.8005 28.2293 3.95303C29.5853 3.17243 30.6267 1.9355 31.116 0.461444C29.848 1.18437 28.4427 1.70991 26.9467 1.99318C25.7507 0.766509 24.0427 0 22.1547 0C17.916 0 14.8013 3.80178 15.7587 7.74841C10.304 7.48564 5.46667 4.97334 2.228 1.15489C0.508 3.99149 1.336 7.70226 4.25867 9.58137C3.184 9.54804 2.17067 9.26477 1.28667 8.79179C1.21467 11.7155 3.39467 14.4509 6.552 15.0597C5.628 15.3007 4.616 15.3571 3.58667 15.1674C4.42133 17.6746 6.84533 19.4986 9.72 19.5498C6.96 21.6302 3.48267 22.5595 0 22.1647C2.90533 23.9553 6.35733 25 10.064 25C22.2533 25 29.14 15.1033 28.724 6.22693C30.0067 5.33608 31.12 4.22477 32 2.95965Z" fill="#25396A" fill-opacity="0.55"/>
</svg>
