<svg width="1541" height="116" viewBox="0 0 1541 116" fill="none" xmlns="http://www.w3.org/2000/svg">
<path d="M768.063 41.916C747.607 41.916 731.021 58.5016 731.021 78.958C731.021 99.4145 747.607 116 768.063 116C788.519 116 805.105 99.4145 805.105 78.958C805.105 58.5016 788.519 41.916 768.063 41.916ZM786.633 75.8712C786.485 72.6918 786.115 69.5895 785.534 66.6107H796.338C797.604 69.4969 798.453 72.6053 798.777 75.8712H786.633ZM798.774 82.0449C798.45 85.3107 797.601 88.4192 796.335 91.3054H785.531C786.112 88.3266 786.485 85.2243 786.63 82.0449H798.774ZM792.699 60.437H783.963C782.806 56.7421 781.262 53.362 779.453 50.2937C784.75 52.4051 789.316 55.9457 792.699 60.437ZM777.425 60.437H771.15V49.096C773.746 52.2137 775.86 56.0599 777.425 60.437ZM771.15 97.479H777.425C775.86 101.856 773.746 105.702 771.15 108.82V97.479ZM764.976 49.096V60.437H758.701C760.266 56.0599 762.38 52.2137 764.976 49.096ZM764.976 66.6107V75.8712H755.734C755.895 72.6609 756.293 69.5617 756.935 66.6107H764.976ZM764.976 82.0449V91.3054H756.935C756.293 88.3544 755.898 85.2552 755.734 82.0449H764.976ZM764.976 97.479V108.82C762.38 105.702 760.266 101.856 758.701 97.479H764.976ZM771.15 91.3054V82.0449H780.392C780.231 85.2552 779.833 88.3544 779.191 91.3054H771.15ZM771.15 75.8712V66.6107H779.191C779.833 69.5617 780.228 72.6609 780.392 75.8712H771.15ZM756.673 50.2937C754.864 53.362 753.32 56.7421 752.163 60.437H743.427C746.81 55.9457 751.376 52.4051 756.673 50.2937ZM749.493 75.8712H737.352C737.676 72.6053 738.525 69.4969 739.791 66.6107H750.595C750.011 69.5895 749.641 72.6918 749.493 75.8712ZM750.595 91.3054H739.791C738.525 88.4192 737.676 85.3107 737.352 82.0449H749.496C749.641 85.2243 750.011 88.3266 750.595 91.3054ZM743.427 97.479H752.163C753.32 101.174 754.864 104.554 756.673 107.622C751.376 105.511 746.81 101.97 743.427 97.479ZM779.453 107.622C781.262 104.554 782.806 101.174 783.963 97.479H792.699C789.316 101.97 784.75 105.511 779.453 107.622Z" fill="#626B74" fill-opacity="0.26"/>
<path d="M1314.92 2.92432C1294.46 2.92432 1277.88 19.5099 1277.88 39.9663C1277.88 60.4228 1294.46 77.0083 1314.92 77.0083C1335.38 77.0083 1351.96 60.4228 1351.96 39.9663C1351.96 19.5099 1335.38 2.92432 1314.92 2.92432ZM1333.49 36.8795C1333.34 33.7001 1332.97 30.5978 1332.39 27.619H1343.2C1344.46 30.5052 1345.31 33.6136 1345.63 36.8795H1333.49ZM1345.63 43.0532C1345.31 46.319 1344.46 49.4275 1343.19 52.3137H1332.39C1332.97 49.3349 1333.34 46.2326 1333.49 43.0532H1345.63ZM1339.56 21.4453H1330.82C1329.66 17.7504 1328.12 14.3703 1326.31 11.302C1331.61 13.4134 1336.17 16.954 1339.56 21.4453ZM1324.28 21.4453H1318.01V10.1043C1320.6 13.222 1322.72 17.0682 1324.28 21.4453ZM1318.01 58.4873H1324.28C1322.72 62.8645 1320.6 66.7107 1318.01 69.8284V58.4873ZM1311.83 10.1043V21.4453H1305.56C1307.12 17.0682 1309.24 13.222 1311.83 10.1043ZM1311.83 27.619V36.8795H1302.59C1302.75 33.6692 1303.15 30.57 1303.79 27.619H1311.83ZM1311.83 43.0532V52.3137H1303.79C1303.15 49.3627 1302.75 46.2635 1302.59 43.0532H1311.83ZM1311.83 58.4873V69.8284C1309.24 66.7107 1307.12 62.8645 1305.56 58.4873H1311.83ZM1318.01 52.3137V43.0532H1327.25C1327.09 46.2635 1326.69 49.3627 1326.05 52.3137H1318.01ZM1318.01 36.8795V27.619H1326.05C1326.69 30.57 1327.09 33.6692 1327.25 36.8795H1318.01ZM1303.53 11.302C1301.72 14.3703 1300.18 17.7504 1299.02 21.4453H1290.28C1293.67 16.954 1298.23 13.4134 1303.53 11.302ZM1296.35 36.8795H1284.21C1284.53 33.6136 1285.38 30.5052 1286.65 27.619H1297.45C1296.87 30.5978 1296.5 33.7001 1296.35 36.8795ZM1297.45 52.3137H1286.65C1285.38 49.4275 1284.53 46.319 1284.21 43.0532H1296.35C1296.5 46.2326 1296.87 49.3349 1297.45 52.3137ZM1290.28 58.4873H1299.02C1300.18 62.1823 1301.72 65.5624 1303.53 68.6307C1298.23 66.5193 1293.67 62.9787 1290.28 58.4873ZM1326.31 68.6307C1328.12 65.5624 1329.66 62.1823 1330.82 58.4873H1339.56C1336.17 62.9787 1331.61 66.5193 1326.31 68.6307Z" fill="#626B74" fill-opacity="0.26"/>
<path d="M222.181 0C201.724 0 185.139 16.5856 185.139 37.042C185.139 57.4985 201.724 74.084 222.181 74.084C242.637 74.084 259.223 57.4985 259.223 37.042C259.223 16.5856 242.637 0 222.181 0ZM240.751 33.9552C240.603 30.7757 240.232 27.6735 239.652 24.6947H250.456C251.722 27.5809 252.571 30.6893 252.895 33.9552H240.751ZM252.892 40.1288C252.567 43.3947 251.719 46.5032 250.453 49.3894H239.649C240.229 46.4106 240.603 43.3083 240.748 40.1288H252.892ZM246.817 18.521H238.081C236.923 14.8261 235.38 11.446 233.571 8.37767C238.868 10.4891 243.434 14.0297 246.817 18.521ZM231.543 18.521H225.268V7.17998C227.864 10.2977 229.978 14.1439 231.543 18.521ZM225.268 55.563H231.543C229.978 59.9402 227.864 63.7864 225.268 66.9041V55.563ZM219.094 7.17998V18.521H212.818C214.383 14.1439 216.498 10.2977 219.094 7.17998ZM219.094 24.6947V33.9552H209.852C210.012 30.7449 210.411 27.6457 211.053 24.6947H219.094ZM219.094 40.1288V49.3894H211.053C210.411 46.4383 210.015 43.3392 209.852 40.1288H219.094ZM219.094 55.563V66.9041C216.498 63.7864 214.383 59.9402 212.818 55.563H219.094ZM225.268 49.3894V40.1288H234.51C234.349 43.3392 233.951 46.4383 233.309 49.3894H225.268ZM225.268 33.9552V24.6947H233.309C233.951 27.6457 234.346 30.7449 234.51 33.9552H225.268ZM210.79 8.37767C208.981 11.446 207.438 14.8261 206.28 18.521H197.545C200.928 14.0297 205.493 10.4891 210.79 8.37767ZM203.61 33.9552H191.47C191.794 30.6893 192.643 27.5809 193.908 24.6947H204.712C204.129 27.6735 203.758 30.7757 203.61 33.9552ZM204.712 49.3894H193.908C192.643 46.5032 191.794 43.3947 191.47 40.1288H203.613C203.758 43.3083 204.129 46.4106 204.712 49.3894ZM197.545 55.563H206.28C207.438 59.258 208.981 62.638 210.79 65.7064C205.493 63.595 200.928 60.0544 197.545 55.563ZM233.571 65.7064C235.38 62.638 236.923 59.258 238.081 55.563H246.817C243.434 60.0544 238.868 63.595 233.571 65.7064Z" fill="#626B74" fill-opacity="0.26"/>
<path d="M623.632 11.6975H553.772C549.915 11.6975 546.786 14.8636 546.786 18.7647V61.1681C546.786 65.0692 549.915 68.2353 553.772 68.2353H623.632C627.488 68.2353 630.618 65.0692 630.618 61.1681V18.7647C630.618 14.8636 627.488 11.6975 623.632 11.6975ZM623.632 59.4013C623.632 60.3766 622.849 61.1681 621.885 61.1681H555.518C554.554 61.1681 553.772 60.3766 553.772 59.4013V36.4328H623.632V59.4013ZM623.632 25.832H553.772V20.5315C553.772 19.5563 554.554 18.7647 555.518 18.7647H621.885C622.849 18.7647 623.632 19.5563 623.632 20.5315V25.832ZM592.195 47.0336H560.758V43.5H592.195V47.0336ZM581.716 54.1009H560.758V50.5673H581.716V54.1009ZM616.646 47.0336H606.167V43.5H616.646V47.0336Z" fill="#626B74" fill-opacity="0.26"/>
<path d="M1170.49 50.6891H1100.63C1096.77 50.6891 1093.64 53.8552 1093.64 57.7563V100.16C1093.64 104.061 1096.77 107.227 1100.63 107.227H1170.49C1174.34 107.227 1177.47 104.061 1177.47 100.16V57.7563C1177.47 53.8552 1174.34 50.6891 1170.49 50.6891ZM1170.49 98.3929C1170.49 99.3681 1169.71 100.16 1168.74 100.16H1102.38C1101.41 100.16 1100.63 99.3681 1100.63 98.3929V75.4244H1170.49V98.3929ZM1170.49 64.8235H1100.63V59.5231C1100.63 58.5478 1101.41 57.7563 1102.38 57.7563H1168.74C1169.71 57.7563 1170.49 58.5478 1170.49 59.5231V64.8235ZM1139.05 86.0252H1107.61V82.4916H1139.05V86.0252ZM1128.57 93.0924H1107.61V89.5588H1128.57V93.0924ZM1163.5 86.0252H1153.02V82.4916H1163.5V86.0252Z" fill="#626B74" fill-opacity="0.26"/>
<path d="M77.7493 47.7646H7.88931C4.03305 47.7646 0.90332 50.9308 0.90332 54.8319V97.2352C0.90332 101.136 4.03305 104.302 7.88931 104.302H77.7493C81.6055 104.302 84.7353 101.136 84.7353 97.2352V54.8319C84.7353 50.9308 81.6055 47.7646 77.7493 47.7646ZM77.7493 95.4684C77.7493 96.4437 76.9668 97.2352 76.0028 97.2352H9.63581C8.67175 97.2352 7.88931 96.4437 7.88931 95.4684V72.4999H77.7493V95.4684ZM77.7493 61.8991H7.88931V56.5987C7.88931 55.6234 8.67175 54.8319 9.63581 54.8319H76.0028C76.9668 54.8319 77.7493 55.6234 77.7493 56.5987V61.8991ZM46.3123 83.1008H14.8753V79.5672H46.3123V83.1008ZM35.8333 90.168H14.8753V86.6344H35.8333V90.168ZM70.7633 83.1008H60.2843V79.5672H70.7633V83.1008Z" fill="#626B74" fill-opacity="0.26"/>
<path d="M950.084 21.0918L950.653 22.3996C951.529 22.2442 952.575 22.1911 953.784 22.3048L954.276 24.4922C953.326 24.3708 952.317 24.2571 951.426 24.4467L951.086 24.5339C949.371 25.0001 949.918 26.6757 951.448 27.0813C953.969 27.6803 956.97 27.8698 958.156 30.5765C959.11 32.7676 958.005 34.265 956.157 34.9852L956.726 36.2969L955.525 36.5546L954.981 35.3074C953.732 35.5387 952.302 35.5084 950.99 35.152L950.62 32.9382C951.707 33.1125 953.052 33.268 954.087 33.0519L954.774 32.8244C956.005 32.1989 955.628 30.6182 953.799 30.2429C952.442 29.9282 948.839 30.1633 947.497 27.0927C946.739 25.3565 947.301 23.5444 949.474 22.718L948.879 21.3495L950.084 21.0918ZM964.203 27.2102C961.594 20.9629 954.294 16.7816 947.907 17.8733C941.52 18.9651 938.456 24.9129 941.069 31.164C943.827 37.7563 951.744 41.9793 958.26 40.3152C964.033 38.8443 966.687 33.1618 964.203 27.2102ZM979.172 5.84875L993.092 37.0588C973.011 53.0676 946.322 36.9148 926.743 53.9698L912.824 22.7597C931.097 4.64327 956.338 21.0539 979.172 5.84875ZM993.24 51.392C967.896 66.3242 947.412 45.9939 921.166 74.084L904.534 36.312L909.716 30.7698L923.787 62.6167L923.779 62.6471C951.296 41.4486 965.157 58.1928 990.711 45.357C991.798 47.8097 992.8 50.3988 993.24 51.392Z" fill="#626B74" fill-opacity="0.26"/>
<path d="M1496.94 60.0833L1497.51 61.3912C1498.39 61.2358 1499.43 61.1827 1500.64 61.2964L1501.13 63.4837C1500.18 63.3624 1499.17 63.2487 1498.28 63.4382L1497.94 63.5254C1496.23 63.9917 1496.77 65.6673 1498.3 66.0729C1500.83 66.6718 1503.83 66.8614 1505.01 69.568C1505.97 71.7592 1504.86 73.2565 1503.01 73.9768L1503.58 75.2884L1502.38 75.5462L1501.84 74.299C1500.59 74.5303 1499.16 74.4999 1497.85 74.1436L1497.48 71.9297C1498.56 72.1041 1499.91 72.2595 1500.94 72.0435L1501.63 71.816C1502.86 71.1905 1502.49 69.6097 1500.66 69.2344C1499.3 68.9198 1495.7 69.1548 1494.35 66.0843C1493.6 64.348 1494.16 62.536 1496.33 61.7096L1495.74 60.3411L1496.94 60.0833ZM1511.06 66.2018C1508.45 59.9544 1501.15 55.7731 1494.76 56.8649C1488.38 57.9567 1485.31 63.9045 1487.93 70.1556C1490.68 76.7479 1498.6 80.9709 1505.12 79.3067C1510.89 77.8359 1513.54 72.1534 1511.06 66.2018ZM1526.03 44.8403L1539.95 76.0504C1519.87 92.0592 1493.18 75.9063 1473.6 92.9614L1459.68 61.7513C1477.95 43.6348 1503.19 60.0454 1526.03 44.8403ZM1540.1 90.3836C1514.75 105.316 1494.27 84.9854 1468.02 113.076L1451.39 75.3036L1456.57 69.7614L1470.64 101.608L1470.64 101.639C1498.15 80.4402 1512.01 97.1844 1537.57 84.3486C1538.66 86.8012 1539.66 89.3904 1540.1 90.3836Z" fill="#626B74" fill-opacity="0.26"/>
<path d="M404.202 57.159L404.771 58.4669C405.647 58.3114 406.693 58.2584 407.902 58.3721L408.393 60.5594C407.443 60.4381 406.434 60.3244 405.544 60.5139L405.203 60.6011C403.488 61.0674 404.036 62.7429 405.566 63.1486C408.086 63.7475 411.088 63.9371 412.274 66.6437C413.228 68.8348 412.123 70.3322 410.274 71.0525L410.844 72.3641L409.642 72.6219L409.099 71.3747C407.85 71.6059 406.419 71.5756 405.107 71.2193L404.738 69.0054C405.824 69.1798 407.17 69.3352 408.205 69.1192L408.892 68.8917C410.123 68.2662 409.746 66.6854 407.916 66.3101C406.56 65.9955 402.956 66.2305 401.615 63.1599C400.857 61.4237 401.419 59.6117 403.592 58.7853L402.997 57.4168L404.202 57.159ZM418.321 63.2775C415.711 57.0301 408.412 52.8488 402.025 53.9406C395.638 55.0324 392.574 60.9802 395.187 67.2313C397.944 73.8236 405.861 78.0466 412.378 76.3824C418.151 74.9116 420.805 69.2291 418.321 63.2775ZM433.29 41.916L447.209 73.1261C427.129 89.1348 400.439 72.982 380.861 90.0371L366.942 58.827C385.215 40.7105 410.456 57.1211 433.29 41.916ZM447.357 87.4593C422.013 102.391 401.53 82.0611 375.284 110.151L358.651 72.3793L363.833 66.8371L377.904 98.684L377.897 98.7143C405.414 77.5159 419.274 94.2601 444.829 81.4242C445.916 83.8769 446.917 86.4661 447.357 87.4593Z" fill="#626B74" fill-opacity="0.26"/>
</svg>
