<svg width="145" height="48" viewBox="0 0 145 48" fill="none" xmlns="http://www.w3.org/2000/svg">
<g opacity="0.75" clip-path="url(#clip0_560_125)">
<path d="M58.9784 15.4344H51.3638C51.1331 15.4344 50.9023 15.2528 50.9023 14.9804V11.5758C50.9023 11.3488 51.0869 11.1218 51.3638 11.1218H72.2231C72.4539 11.1218 72.6846 11.3034 72.6846 11.5758V14.9804C72.6846 15.2074 72.5 15.4344 72.2231 15.4344H64.6086C64.3778 15.4344 64.1471 15.616 64.1471 15.8884V37.088C64.1471 37.315 63.9625 37.5419 63.6856 37.5419H59.8091C59.5783 37.5419 59.3476 37.3604 59.3476 37.088V15.8884C59.4399 15.6614 59.2092 15.4344 58.9784 15.4344Z" fill="#011314"/>
<path d="M70.1001 27.6458V27.101C70.1001 21.7897 74.3919 17.2502 79.7914 17.2048C86.3445 17.114 89.6211 22.1075 89.6211 27.8727C89.6211 28.1451 89.6211 28.4629 89.5749 28.7352C89.5749 28.9622 89.3442 29.1438 89.1135 29.1438H75.2226C74.9457 29.1438 74.715 29.4162 74.8073 29.6885C75.4534 32.5938 77.7147 34.1827 80.5298 34.1827C82.6526 34.1827 84.1755 33.4564 85.6984 32.0945C85.883 31.9583 86.1138 31.9129 86.2984 32.0945L88.3751 33.9103C88.5597 34.0919 88.5597 34.3643 88.4212 34.5458C86.5291 36.634 83.9909 37.9505 80.4375 37.9505C74.6227 37.9505 70.1001 33.7741 70.1001 27.6458ZM84.5447 26.1931C84.8216 26.1931 85.0523 25.9661 85.0062 25.6938C84.5447 23.0154 82.8372 20.9726 79.9298 20.9726C77.2532 20.9726 75.3611 22.8792 74.7611 25.6938C74.715 25.9661 74.8996 26.2385 75.1765 26.2385H84.5447V26.1931Z" fill="#011314"/>
<path d="M93.4976 10.0323H97.2357C97.4664 10.0323 97.6972 10.2139 97.6972 10.4863V37.088C97.6972 37.315 97.5126 37.5419 97.2357 37.5419H93.4976C93.2669 37.5419 93.0361 37.3604 93.0361 37.088V10.4863C93.0361 10.2139 93.2669 10.0323 93.4976 10.0323Z" fill="#011314"/>
<path d="M102.912 10.0323H106.65C106.881 10.0323 107.112 10.2139 107.112 10.4863V37.088C107.112 37.315 106.927 37.5419 106.65 37.5419H102.912C102.681 37.5419 102.451 37.3604 102.451 37.088V10.4863C102.451 10.2139 102.681 10.0323 102.912 10.0323Z" fill="#011314"/>
<path d="M110.527 27.6458V27.101C110.527 21.7897 114.819 17.2502 120.218 17.2048C126.771 17.114 130.048 22.1075 130.048 27.8727C130.048 28.1451 130.048 28.4629 130.002 28.7352C130.002 28.9622 129.771 29.1438 129.54 29.1438H115.649C115.372 29.1438 115.142 29.4162 115.234 29.6885C115.88 32.5938 118.141 34.1827 120.956 34.1827C123.079 34.1827 124.602 33.4564 126.125 32.0945C126.31 31.9583 126.54 31.9129 126.725 32.0945L128.802 33.9103C128.986 34.0919 128.986 34.3643 128.848 34.5458C126.956 36.634 124.418 37.9505 120.864 37.9505C115.003 37.9505 110.527 33.7741 110.527 27.6458ZM124.971 26.1931C125.248 26.1931 125.479 25.9661 125.433 25.6938C124.971 23.0154 123.264 20.9726 120.356 20.9726C117.68 20.9726 115.788 22.8792 115.188 25.6938C115.142 25.9661 115.326 26.2385 115.603 26.2385H124.971V26.1931Z" fill="#011314"/>
<path d="M133.647 17.6134H137.385C137.616 17.6134 137.847 17.795 137.847 18.0673V20.3371C137.847 20.791 138.447 20.9272 138.678 20.5641C139.97 18.5667 141.908 17.2956 144.585 17.2502C144.815 17.2502 145 17.4318 145 17.7042V22.1075H144.723C140.662 22.1075 137.847 24.6951 137.847 29.9609V37.088C137.847 37.315 137.662 37.5419 137.385 37.5419H133.647C133.417 37.5419 133.186 37.3604 133.186 37.088V18.0673C133.186 17.8404 133.417 17.6134 133.647 17.6134Z" fill="#011314"/>
<path d="M17.352 46.7118C18.6903 48.4369 21.2747 48.4369 22.613 46.6665C26.351 41.8091 33.3657 37.9505 40.0111 37.3604L35.8577 29.5524C35.7654 29.5978 35.7193 29.5978 35.627 29.6432C28.4739 33.7742 22.013 37.1788 20.0748 37.1788C18.0904 37.1788 11.4911 33.6834 4.19955 29.4616L0 37.3604C6.64545 37.9505 13.5678 41.8091 17.352 46.7118Z" fill="#575E60"/>
<path d="M20.0747 33.1386C21.5515 32.8663 26.997 29.961 33.9194 25.9662L30.1352 18.8391C25.3818 21.4266 21.5053 23.2424 20.0747 23.2424C18.6441 23.2424 14.7214 21.3812 9.92191 18.7937L6.1377 25.9208C13.1062 29.961 18.5518 32.8663 20.0747 33.1386Z" fill="#575E60"/>
<path d="M20.0749 19.2022C21.1363 19.0207 24.0898 17.5226 28.151 15.2982L28.1971 15.2528L20.0287 0L19.3827 1.08949L11.8604 15.2075C11.9065 15.2528 11.9527 15.2982 11.9988 15.2982C16.0599 17.568 19.0135 19.0207 20.0749 19.2022Z" fill="#575E60"/>
<path d="M4.19955 29.5087L0 37.3621C6.64545 37.9523 13.5678 41.8109 17.352 46.7136C18.0442 47.5761 19.0134 48.03 19.9825 47.9846V37.1805C17.9519 37.1351 11.3988 33.6851 4.19955 29.5087Z" fill="#011314"/>
<path d="M9.92191 18.7954L6.1377 25.9225C13.0139 29.9173 18.4133 32.8226 19.9824 33.1404V23.2896C18.5056 23.2442 14.6753 21.3829 9.92191 18.7954Z" fill="#011314"/>
<path d="M19.3827 1.13661L11.8604 15.2092C11.9065 15.2546 11.9527 15.3 11.9988 15.3C15.9676 17.5243 18.9212 18.977 20.0287 19.204V0.0471191L19.3827 1.13661Z" fill="#011314"/>
</g>
<defs>
<clipPath id="clip0_560_125">
<rect width="145" height="48" fill="white"/>
</clipPath>
</defs>
</svg>
